%FSLAX46Y46*%
%MOIN*%
G04 KAGI Lite Edge.Cuts*
%MOMM*%
%LPD*%
%ADD10C,0.100*%
D10*
X1500000Y0D02*
X53500000Y0D01*
X53500000Y0D02*
X53647026Y7223D01*
X53792635Y28822D01*
X53935427Y64589D01*
X54074025Y114181D01*
X54207095Y177118D01*
X54333355Y252796D01*
X54451590Y340484D01*
X54560660Y439340D01*
X54659516Y548410D01*
X54747204Y666645D01*
X54822882Y792905D01*
X54885819Y925975D01*
X54935411Y1064573D01*
X54971178Y1207365D01*
X54992777Y1352974D01*
X55000000Y1500000D01*
X55000000Y53500000D01*
X55000000Y53500000D02*
X54992777Y53647026D01*
X54971178Y53792635D01*
X54935411Y53935427D01*
X54885819Y54074025D01*
X54822882Y54207095D01*
X54747204Y54333355D01*
X54659516Y54451590D01*
X54560660Y54560660D01*
X54451590Y54659516D01*
X54333355Y54747204D01*
X54207095Y54822882D01*
X54074025Y54885819D01*
X53935427Y54935411D01*
X53792635Y54971178D01*
X53647026Y54992777D01*
X53500000Y55000000D01*
X1500000Y55000000D01*
X1500000Y55000000D02*
X1352974Y54992777D01*
X1207365Y54971178D01*
X1064573Y54935411D01*
X925975Y54885819D01*
X792905Y54822882D01*
X666645Y54747204D01*
X548410Y54659516D01*
X439340Y54560660D01*
X340484Y54451590D01*
X252796Y54333355D01*
X177118Y54207095D01*
X114181Y54074025D01*
X64589Y53935427D01*
X28822Y53792635D01*
X7223Y53647026D01*
X0Y53500000D01*
X0Y1500000D01*
X0Y1500000D02*
X7223Y1352974D01*
X28822Y1207365D01*
X64589Y1064573D01*
X114181Y925975D01*
X177118Y792905D01*
X252796Y666645D01*
X340484Y548410D01*
X439340Y439340D01*
X548410Y340484D01*
X666645Y252796D01*
X792905Y177118D01*
X925975Y114181D01*
X1064573Y64589D01*
X1207365Y28822D01*
X1352974Y7223D01*
X1500000Y0D01*
M02*
