; KAGI Lite Drill File
; Format: Excellon
; Units: mm
M48
T01C0.400
T02C0.500
T03C0.800
T04C1.000
T05C3.200
%
T01
X5000Y5000
X50000Y5000
X5000Y50000
X50000Y50000
X27500Y5000
X5000Y27500
X50000Y27500
X27500Y50000
X15000Y15000
X40000Y15000
X15000Y40000
X40000Y40000
X27500Y20000
X27500Y36000
X20000Y28000
X35000Y28000
X22000Y30000
X42000Y38000
X10000Y42000
T02
X52500Y28500
X52500Y26500
T04
X24250Y5750
X30750Y5750
X24250Y10250
X30750Y10250
T03
X23180Y51100
X31820Y51100
T05
X4000Y4000
X51000Y4000
X4000Y51000
X51000Y51000
M30
