%FSLAX46Y46*%
%MOIN*%
G04 KAGI Lite F.SilkS*
%MOMM*%
%LPD*%
%ADD10C,0.150*%
D10*
X0Y0D02*
X55000000Y0D01*
X55000000Y55000000D01*
X0Y55000000D01*
X0Y0D01*
X27000000Y28000000D02*
X28000000Y28000000D01*
X27500000Y27500000D02*
X27500000Y28500000D01*
X44500000Y10000000D02*
X45500000Y10000000D01*
X45000000Y9500000D02*
X45000000Y10500000D01*
X27000000Y13000000D02*
X28000000Y13000000D01*
X27500000Y12500000D02*
X27500000Y13500000D01*
X41500000Y42000000D02*
X42500000Y42000000D01*
X42000000Y41500000D02*
X42000000Y42500000D01*
X19500000Y48000000D02*
X20500000Y48000000D01*
X20000000Y47500000D02*
X20000000Y48500000D01*
X34500000Y48000000D02*
X35500000Y48000000D01*
X35000000Y47500000D02*
X35000000Y48500000D01*
X27000000Y52500000D02*
X28000000Y52500000D01*
X27500000Y52000000D02*
X27500000Y53000000D01*
X52000000Y27500000D02*
X53000000Y27500000D01*
X52500000Y27000000D02*
X52500000Y28000000D01*
X7500000Y30000000D02*
X8500000Y30000000D01*
X8000000Y29500000D02*
X8000000Y30500000D01*
X9500000Y48000000D02*
X10500000Y48000000D01*
X10000000Y47500000D02*
X10000000Y48500000D01*
X27000000Y8000000D02*
X28000000Y8000000D01*
X27500000Y7500000D02*
X27500000Y8500000D01*
X37500000Y13000000D02*
X38500000Y13000000D01*
X38000000Y12500000D02*
X38000000Y13500000D01*
X43500000Y13000000D02*
X44500000Y13000000D01*
X44000000Y12500000D02*
X44000000Y13500000D01*
X7500000Y40000000D02*
X8500000Y40000000D01*
X8000000Y39500000D02*
X8000000Y40500000D01*
X47500000Y35000000D02*
X48500000Y35000000D01*
X48000000Y34500000D02*
X48000000Y35500000D01*
X46500000Y22000000D02*
X47500000Y22000000D01*
X47000000Y21500000D02*
X47000000Y22500000D01*
X41500000Y18000000D02*
X42500000Y18000000D01*
X42000000Y17500000D02*
X42000000Y18500000D01*
X41500000Y22000000D02*
X42500000Y22000000D01*
X42000000Y21500000D02*
X42000000Y22500000D01*
X47500000Y32000000D02*
X48500000Y32000000D01*
X48000000Y31500000D02*
X48000000Y32500000D01*
X21500000Y51000000D02*
X22500000Y51000000D01*
X22000000Y50500000D02*
X22000000Y51500000D01*
X32500000Y51000000D02*
X33500000Y51000000D01*
X33000000Y50500000D02*
X33000000Y51500000D01*
X14500000Y48000000D02*
X15500000Y48000000D01*
X15000000Y47500000D02*
X15000000Y48500000D01*
X14500000Y44000000D02*
X15500000Y44000000D01*
X15000000Y43500000D02*
X15000000Y44500000D01*
X37500000Y20000000D02*
X38500000Y20000000D01*
X38000000Y19500000D02*
X38000000Y20500000D01*
X21500000Y28000000D02*
X22500000Y28000000D01*
X22000000Y27500000D02*
X22000000Y28500000D01*
X24500000Y28000000D02*
X25500000Y28000000D01*
X25000000Y27500000D02*
X25000000Y28500000D01*
X19500000Y44000000D02*
X20500000Y44000000D01*
X20000000Y43500000D02*
X20000000Y44500000D01*
X16500000Y44000000D02*
X17500000Y44000000D01*
X17000000Y43500000D02*
X17000000Y44500000D01*
X7500000Y22000000D02*
X8500000Y22000000D01*
X8000000Y21500000D02*
X8000000Y22500000D01*
X31500000Y13000000D02*
X32500000Y13000000D01*
X32000000Y12500000D02*
X32000000Y13500000D01*
X16500000Y48000000D02*
X17500000Y48000000D01*
X17000000Y47500000D02*
X17000000Y48500000D01*
M02*
